<?xml version="1.0" encoding="utf-8" ?>
<svg xmlns="http://www.w3.org/2000/svg" xmlns:xlink="http://www.w3.org/1999/xlink" width="1024" height="1024">
	<path fill="#B95836" d="M276.416 443.677C275.55 432.686 276.284 421.195 276.317 410.136L276.377 346.758L276.353 283.801C276.349 270.82 275.254 256.843 277.645 244.078C280.03 231.35 286.013 219.693 294.415 209.903C307.694 194.411 326.546 184.78 346.88 183.098C354.507 182.527 362.324 182.868 369.977 182.876L410.728 182.885L537.844 182.853L631.994 182.854C647.068 182.866 667.336 181.675 681.921 183.898C697.048 186.135 711.218 192.656 722.758 202.689C735.849 214.059 745.391 230.535 746.592 248.02C747.528 261.653 746.884 275.604 746.874 289.281L746.887 363.265L746.917 463.226C746.926 480.552 747.497 498.067 746.865 515.373C747.416 529.438 747.115 543.815 746.94 557.9C746.669 579.804 738.6 599.612 722.769 614.925C711.936 625.403 698.068 633.152 683.186 635.899C670.012 638.33 655.563 637.137 642.15 637.144L573.737 637.131L428.297 637.118C403.616 637.117 378.82 637.612 354.15 637.083C333.257 636.741 313.368 628.063 298.906 612.98C289.465 602.965 282.025 590.826 278.656 577.398C275.631 565.337 276.246 552.325 276.267 539.981L276.298 506.911C276.31 485.878 275.719 464.69 276.416 443.677ZM477.39 571.14C480.167 563.088 484.304 555.088 487.694 547.229C496.588 526.477 505.604 505.778 514.741 485.133C519.219 474.903 524.525 464.634 528.222 454.109C531.13 448.15 541.91 425.453 542.682 420.111C542.887 418.699 542.702 417.158 541.629 416.108C540.58 415.082 538.902 414.656 537.493 414.464C533.959 413.983 530.116 414.364 526.539 414.375L504.386 414.409L476.949 414.311C471.411 414.273 465.201 414.76 459.787 413.554C458.097 413.178 456.219 412.633 455.256 411.095C454.879 408.346 455.654 406.029 456.839 403.558C460.754 395.387 467.356 387.383 472.52 379.916C481.435 367.027 490.12 353.837 499.552 341.325C494.982 337.459 490.758 333.209 486.317 329.199C479.587 323.122 472.476 317.275 465.388 311.624C439.757 291.19 411.574 274.886 382.55 259.828C377.07 256.985 364.888 249.534 359.453 248.718C358.091 249.131 357.648 249.608 356.916 250.843C353.584 256.458 350.38 272.974 348.662 280.113C336.107 332.275 329.161 385.836 340.712 438.805C351.174 478.313 372.29 513.843 408.408 534.973C416.729 539.841 425.54 544.13 434.658 547.263C444.126 550.516 461.551 553.012 468.886 558.613C472.653 561.49 475.116 567.078 477.39 571.14ZM490.933 593.725C493.588 599.049 496.762 610.882 502.024 613.532C505.992 615.53 516.612 615.057 520.734 613.396C521.534 613.073 522.628 612.375 522.911 611.531C524.409 607.07 509.347 578.515 506.769 573.159C501.59 579.845 496.656 587.554 490.933 593.725Z"/>
	<path fill="#B95836" d="M395.866 327.026C396.904 326.979 397.967 326.914 399.005 326.983C400.4 327.076 401.494 327.596 402.409 328.658C406.142 332.991 423.799 375.138 427.448 383.243C440.519 411.734 453.359 440.33 465.968 469.029C469.713 477.42 473.932 485.64 477.452 494.125C478.326 496.231 479.753 499.512 479.302 501.784C479.039 503.107 478.365 504.506 477.216 505.288C475.692 506.325 474.249 506.58 472.473 506.063C471.404 505.752 470.246 504.767 469.642 503.873C466.94 499.874 465.058 494.468 463.045 490.037L450.337 461.866C447.49 455.448 444.871 448.646 441.39 442.556C433.183 437.747 387.709 413.953 385.265 409.317C384.473 407.814 384.349 405.639 384.983 404.049C385.419 402.955 386.286 402.407 387.374 402.106C389.57 401.499 392.246 402.373 394.28 403.159C400.639 405.617 406.803 409.711 412.714 413.099C419.658 417.079 426.76 420.869 433.765 424.751C429.062 414.639 392.539 335.705 392.955 331.373C393.157 329.266 394.351 328.276 395.866 327.026Z"/>
	<path fill="#E17938" d="M506.769 573.159C508.951 568.743 513.225 564.152 516.259 560.207L541.323 528.213C557.385 507.75 573.557 487.373 589.837 467.083C596.456 458.8 605.517 445.926 612.923 438.894C624.613 437.959 637.009 438.791 648.756 438.809L710.154 438.88C722.22 438.889 734.385 439.164 746.438 438.669C746.362 447.374 745.56 513.058 746.865 515.373C747.416 529.438 747.115 543.815 746.94 557.9C746.669 579.804 738.6 599.612 722.769 614.925C711.936 625.403 698.068 633.152 683.186 635.899C670.012 638.33 655.563 637.137 642.15 637.144L573.737 637.131L428.297 637.118C403.616 637.117 378.82 637.612 354.15 637.083C333.257 636.741 313.368 628.063 298.906 612.98C289.465 602.965 282.025 590.826 278.656 577.398C275.631 565.337 276.246 552.325 276.267 539.981L276.298 506.911C276.31 485.878 275.719 464.69 276.416 443.677C276.525 442.123 276.708 440.656 277.007 439.126C280.943 438.344 285.738 438.866 289.8 438.876L314.558 438.885C322.348 438.877 333.3 437.936 340.712 438.805C351.174 478.313 372.29 513.843 408.408 534.973C416.729 539.841 425.54 544.13 434.658 547.263C444.126 550.516 461.551 553.012 468.886 558.613C472.653 561.49 475.116 567.078 477.39 571.14C475.742 575.262 465.425 597.43 466.61 600.12C467.599 602.364 470.909 603.504 473.025 604.346C481.052 602.275 484.762 599.397 490.64 593.902C490.723 593.824 490.835 593.784 490.933 593.725C493.588 599.049 496.762 610.882 502.024 613.532C505.992 615.53 516.612 615.057 520.734 613.396C521.534 613.073 522.628 612.375 522.911 611.531C524.409 607.07 509.347 578.515 506.769 573.159Z"/>
	<path fill="#FEB93F" d="M499.552 341.325L558.843 257.331L577.447 230.961C580.678 226.375 583.807 221.295 587.484 217.085C589.38 214.914 590.655 213.757 593.549 213.24C598.114 212.425 629.821 212.608 632.404 213.852C633.333 215.963 632.025 219.184 631.215 221.215C625.847 234.687 619.123 247.914 613.048 261.094C605.881 276.646 599.147 292.39 591.832 307.877C587.77 316.434 583.815 325.042 579.968 333.699C577.996 338.024 575.715 342.304 573.98 346.724C573.289 348.483 572.496 350.317 572.685 352.224C574.195 353.275 575.562 353.582 577.39 353.76C586.217 354.619 595.832 353.861 604.732 353.866C625.751 353.876 646.807 353.61 667.822 353.866C670.119 353.894 675.585 353.464 675.95 356.494C676.153 358.178 675.409 359.617 674.52 360.998C669.166 369.321 661.884 377.164 655.733 384.955C641.56 403.012 627.29 420.991 612.923 438.894C605.517 445.926 596.456 458.8 589.837 467.083C573.557 487.373 557.385 507.75 541.323 528.213L516.259 560.207C513.225 564.152 508.951 568.743 506.769 573.159C501.59 579.845 496.656 587.554 490.933 593.725C490.835 593.784 490.723 593.824 490.64 593.902C484.762 599.397 481.052 602.275 473.025 604.346C470.909 603.504 467.599 602.364 466.61 600.12C465.425 597.43 475.742 575.262 477.39 571.14C480.167 563.088 484.304 555.088 487.694 547.229C496.588 526.477 505.604 505.778 514.741 485.133C519.219 474.903 524.525 464.634 528.222 454.109C531.13 448.15 541.91 425.453 542.682 420.111C542.887 418.699 542.702 417.158 541.629 416.108C540.58 415.082 538.902 414.656 537.493 414.464C533.959 413.983 530.116 414.364 526.539 414.375L504.386 414.409L476.949 414.311C471.411 414.273 465.201 414.76 459.787 413.554C458.097 413.178 456.219 412.633 455.256 411.095C454.879 408.346 455.654 406.029 456.839 403.558C460.754 395.387 467.356 387.383 472.52 379.916C481.435 367.027 490.12 353.837 499.552 341.325Z"/>
	<path fill="#FEB93F" d="M546.349 706.438C568.835 704.106 588.921 720.522 591.111 743.022C593.302 765.521 576.759 785.503 554.246 787.552C531.933 789.582 512.167 773.218 509.996 750.918C507.825 728.619 524.064 708.75 546.349 706.438ZM553.187 770.006C558.98 768.725 563.399 766.461 566.775 761.334C570.726 755.333 571.54 747.534 569.905 740.624C568.604 735.128 565.534 729.978 560.651 726.971C557.033 724.743 552.925 724.008 548.721 724.131C542.86 725.024 538.142 727.268 534.603 732.255C530.583 737.92 529.244 745.984 530.666 752.731C531.85 758.348 534.929 763.698 539.803 766.878C543.911 769.558 548.381 770.125 553.187 770.006Z"/>
	<path fill="#FEB93F" d="M624.184 706.162C632.431 704.95 643.923 706.321 650.928 711.119C657.045 715.307 659.515 721.271 660.878 728.275C654.961 729.335 648.973 730.05 643.018 730.862C642.192 729.186 641.128 727.364 639.88 725.971C637.384 723.184 633.453 721.859 629.794 721.754C626.196 721.65 621.842 722.444 619.226 725.14C618.112 726.288 617.391 727.781 617.555 729.419C618.429 738.117 637.323 738.426 643.808 740.247C647.669 741.332 651.858 743.246 654.899 745.881C659.344 749.733 661.713 755.448 661.956 761.265C662.247 767.594 659.979 773.775 655.664 778.414C649.093 785.441 640.533 787.325 631.334 787.777C623.404 788.242 613.685 786.584 607.141 781.868C600.688 777.217 598.184 770.747 597.103 763.178C602.668 762.181 608.389 761.649 613.989 760.82C614.897 762.852 615.772 765.169 617.236 766.867C620.347 770.473 625.042 772.129 629.702 772.269C633.614 772.386 637.718 771.563 640.573 768.696C641.885 767.379 643.582 765.028 643.365 763.061C642.634 756.432 623.435 754.389 618.009 752.837C614.318 751.781 610.61 750.327 607.438 748.131C602.531 744.734 599.504 739.877 598.564 733.96C597.626 727.895 599.197 721.71 602.917 716.83C608.383 709.725 615.73 707.413 624.184 706.162Z"/>
	<path fill="#FEB93F" d="M479.503 775.38C472.505 782.044 465.737 786.249 455.687 785.953C446.057 785.67 437.522 782.472 430.926 775.278C422.727 766.337 420.35 754.635 420.932 742.827C421.456 732.216 424.939 722.007 432.966 714.73C440.151 708.216 449.771 705.526 459.346 706.063C467.277 706.507 473.786 709.442 479.116 715.413C479.402 715.733 479.675 716.063 479.941 716.398C480.063 713.721 480.103 711.017 480.435 708.357C486.514 708.217 492.656 708.372 498.723 708.035C498.532 725.892 498.494 743.751 498.607 761.608C498.613 770.58 499.323 780.197 498.038 789.091C497.307 794.151 495.788 798.941 493.165 803.34C490.698 807.178 487.696 810.486 483.97 813.134C474.37 819.957 461.367 821.514 449.984 819.429C438.492 817.324 431.348 811.825 424.836 802.385C423.46 799.191 422.446 796.053 421.55 792.694C427.933 793.033 435.534 792.468 441.727 790.8C443.747 795.94 445.88 799.51 451.252 801.783C456.372 803.948 462.953 803.731 468.047 801.597C472.505 799.729 475.691 796.248 477.482 791.793C479.542 786.671 479.404 780.819 479.503 775.38ZM463.758 767.509C469.549 765.682 474.053 762.878 476.919 757.271C479.948 751.346 480.222 743.247 478.144 736.939C476.569 732.158 473.428 728.139 468.877 725.882C464.838 723.878 460.857 723.811 456.454 724.059C451.148 725.266 447.035 727.945 444.145 732.634C440.479 738.579 439.629 746.572 441.506 753.254C442.946 758.382 446.123 763.135 450.829 765.789C454.714 767.98 459.434 768.506 463.758 767.509Z"/>
	<path fill="#FEB93F" d="M691.458 716.824C697.575 710.151 704.251 706.488 713.408 706.06C722.48 705.635 732.162 708.587 738.872 714.841C747.202 722.604 750.446 734.195 750.793 745.252C751.163 757.061 748.313 768.863 739.963 777.598C733.558 784.299 725.075 787.855 715.829 787.959C707.407 788.055 699.173 785.833 693.085 779.698C692.718 779.329 692.372 778.939 692.024 778.553C691.997 791.381 691.675 804.298 692.116 817.114C685.777 816.594 679.312 816.899 672.953 816.964C673.043 814.052 672.992 811.122 673.004 808.207C673.027 774.933 672.498 741.582 673.08 708.317L691.872 708.045C691.711 710.968 691.503 713.896 691.458 716.824ZM715.213 769.528C721.073 767.852 725.473 765.066 728.431 759.523C731.837 753.142 732.292 744.889 730.016 738.039C728.308 732.898 724.977 728.28 720.024 725.873C716.437 724.131 712.869 723.883 708.951 724.123C703.151 725.459 698.714 727.938 695.543 733.193C691.811 739.38 690.938 748.047 692.81 754.984C694.207 760.162 697.332 764.749 702.079 767.377C706.079 769.591 710.722 770.157 715.213 769.528Z"/>
	<path fill="#FEB93F" d="M178.412 718.439C183.387 711.746 189.864 707.641 198.175 706.419C206.218 705.236 215.886 706.521 222.567 711.383C228.75 715.883 231.935 722.759 232.981 730.166C233.845 736.284 233.586 742.61 233.575 748.777C233.555 760.136 233.24 771.57 233.623 782.918L233.398 784.594C231.478 785.402 216.489 785.782 214.6 784.817C214.344 784.686 214.293 784.622 214.143 784.465C213.745 773.768 214.039 762.961 214.031 752.25C214.027 747.144 214.494 741.485 213.522 736.467C212.896 733.237 211.663 730.008 209.305 727.637C206.822 725.14 203.504 723.95 200.01 723.973C195.675 724.006 191.537 725.783 188.528 728.904C180.993 736.819 183.559 759.506 183.676 770.097C183.669 775.128 183.548 780.185 183.957 785.202C177.357 785.104 170.406 785.594 163.867 785.039C164.636 777.598 164.692 743.104 163.613 736.638C163.106 733.601 162.373 730.76 160.344 728.369C158.046 725.661 154.714 724.31 151.217 724.106C146.878 723.853 142.75 725.056 139.597 728.128C137.149 730.515 135.673 733.706 134.891 736.997C132.638 746.489 134.003 773.396 134.11 784.656C131.536 786.014 118.66 785.14 114.94 785.136L115.014 737.037C115.014 728.18 115.362 719.153 114.762 710.318L115.301 708.827C119.822 707.242 128.184 707.981 133.016 708.508L132.927 716.335C139.1 709.976 145.602 706.072 154.695 705.988C162.072 705.921 169.359 708.579 174.573 713.902C175.956 715.314 177.213 716.869 178.412 718.439Z"/>
	<path fill="#FEB93F" d="M270.064 784.704C251.5 777.08 241.201 757.123 245.743 737.576C250.285 718.029 268.329 704.658 288.352 706.001C308.375 707.345 324.471 723.007 326.361 742.985C328.251 762.964 315.378 781.366 295.963 786.441C287.37 788.687 278.28 788.077 270.064 784.704ZM289.036 769.89C295.028 768.364 299.718 765.822 302.969 760.307C306.666 754.035 307.198 746.148 305.201 739.226C303.648 733.845 300.498 729.195 295.527 726.45C291.376 724.158 287.196 723.775 282.563 724.073C276.679 725.545 271.961 728.057 268.69 733.397C265.084 739.283 264.173 746.892 265.788 753.558C267.176 759.289 270.521 764.528 275.717 767.483C279.883 769.853 284.344 770.244 289.036 769.89Z"/>
	<path fill="#FEB93F" d="M780.829 784.645C776.554 782.315 772.81 779.933 769.416 776.403C761.45 768.117 758.5 757.182 758.754 745.927C759.006 734.754 762.57 723.587 770.915 715.792C778.502 708.705 788.985 705.54 799.246 705.997C808.716 706.418 817.823 709.524 824.278 716.734C833.497 727.033 834.05 740.244 833.434 753.34C815.305 753.094 796.1 754.383 778.117 753.074C779.737 758.388 781.02 763.148 785.391 766.992C789.293 770.424 794.514 771.764 799.632 771.215C806.591 770.467 810.652 766.321 814.827 761.196C820.776 762.51 826.884 763.315 832.907 764.242C829.166 772.375 825.377 777.516 818.054 782.793C805.147 789.017 794.371 789.275 780.829 784.645ZM778.451 739.987L799.625 740.007L814.702 740.009C813.308 734.072 811.609 728.242 805.959 724.936C802.548 722.939 798.901 722.629 795.05 722.609C789.927 723.462 786.015 725.325 782.922 729.644C780.678 732.777 779.494 736.327 778.451 739.987Z"/>
	<path fill="#FEB93F" d="M356.665 716.577C362.816 710.045 368.82 706.336 378.036 706.049C386.187 705.796 394.64 707.814 400.652 713.619C409.054 721.731 408.984 732.422 408.968 743.205C408.962 748.065 409.391 783.162 408.825 784.467C408.687 784.786 408.378 785 408.155 785.266L407.619 785.319C401.617 784.901 394.823 784.66 388.844 785.379C389.082 784.433 389.216 783.595 389.263 782.616C389.56 776.433 389.135 770.153 389.141 763.959C389.15 754.962 390.295 744.77 388.542 735.958C387.965 733.056 386.789 730.19 384.732 728.02C382.097 725.24 378.593 724.157 374.841 724.066C370.315 723.956 366.119 725.233 362.912 728.533C360.475 731.042 359.01 734.357 358.245 737.736C355.976 747.762 356.86 773.489 357.268 784.638C354.049 785.979 342.256 785.124 338.088 785.092L338.106 708.32C344.37 708.146 350.791 707.868 357.034 708.474C356.918 711.171 356.853 713.885 356.665 716.577Z"/>
	<path fill="#FEB93F" d="M864.192 709.338C875.155 705.448 887.645 704.232 898.474 709.369C906.08 712.978 911.862 720.113 914.642 727.994C915.31 729.889 915.895 731.877 916.351 733.833C910.759 734.716 903.316 734.908 898.169 737.167L896.87 736.726C894.464 731.826 891.863 726.472 886.309 724.571C882.088 723.126 876.3 723.814 872.405 725.918C867.461 728.589 864.525 733.595 863.103 738.889C861.144 746.186 861.609 754.632 865.45 761.245C867.859 765.393 871.699 768.589 876.427 769.663C880.992 770.699 886.467 769.74 890.434 767.242C894.426 764.728 894.889 759.657 898.077 756.898C904.146 758.276 910.217 759.005 916.408 759.58C913.614 769.611 908.316 778.108 899.06 783.329C890.061 788.406 878.953 789.128 869.118 786.276C863.298 784.589 858.736 781.674 854.144 777.8C852.056 775.707 850.035 773.279 848.472 770.768C841.933 760.265 841.031 746.679 843.956 734.863C846.946 722.788 853.751 715.61 864.192 709.338Z"/>
</svg>
